<?xml version="1.0" standalone="no"?>
<!DOCTYPE svg PUBLIC "-//W3C//DTD SVG 20010904//EN"
 "http://www.w3.org/TR/2001/REC-SVG-20010904/DTD/svg10.dtd">
<svg version="1.0" xmlns="http://www.w3.org/2000/svg"
 width="354.000000pt" height="369.000000pt" viewBox="0 0 354.000000 369.000000"
 preserveAspectRatio="xMidYMid meet">

<g transform="translate(0.000000,369.000000) scale(0.100000,-0.100000)"
fill="#000000" stroke="none">
<path d="M1728 3089 c-15 -21 -45 -50 -66 -64 -43 -29 -151 -55 -228 -55 -58
0 -162 29 -211 60 -18 11 -33 16 -33 12 0 -17 47 -52 105 -78 51 -24 74 -28
150 -28 112 -1 189 22 249 75 41 37 72 87 65 107 -2 5 -16 -8 -31 -29z"/>
<path d="M1820 3093 c0 -40 58 -106 120 -139 49 -25 153 -26 177 -1 17 18 16
18 -27 12 -67 -10 -149 24 -217 89 -29 29 -53 46 -53 39z"/>
<path d="M1165 2942 c-14 -68 -129 -140 -237 -149 -89 -9 -80 -23 14 -22 143
1 233 55 245 148 6 45 -12 64 -22 23z"/>
<path d="M1807 2924 c-11 -11 -8 -170 3 -200 20 -51 31 -11 28 96 -3 95 -11
123 -31 104z"/>
<path d="M1517 2893 c-2 -4 3 -54 11 -111 12 -76 19 -102 29 -100 18 4 18 5 3
110 -12 79 -30 123 -43 101z"/>
<path d="M1206 2821 c-7 -10 26 -156 45 -200 7 -16 13 -21 20 -14 7 7 2 42
-15 108 -25 98 -38 126 -50 106z"/>
<path d="M1960 2638 c1 -23 55 -92 89 -115 19 -13 36 -22 37 -20 2 2 -2 31 -8
66 -10 51 -16 65 -36 72 -34 13 -82 11 -82 -3z"/>
<path d="M1734 2585 c-37 -17 -48 -39 -28 -56 12 -10 24 -8 60 9 24 12 64 22
87 22 l42 1 -24 19 c-27 23 -90 25 -137 5z"/>
<path d="M1343 2524 c-25 -12 -75 -65 -61 -64 2 0 21 7 43 15 26 9 58 12 91 8
42 -4 52 -2 58 12 3 10 1 24 -5 31 -15 19 -86 17 -126 -2z"/>
<path d="M2164 2511 c-34 -15 -54 -52 -54 -99 0 -44 0 -44 30 -39 41 9 60 -1
60 -29 0 -15 6 -24 15 -24 22 0 19 53 -3 73 -10 10 -31 17 -45 17 -31 0 -34
15 -11 48 22 31 84 28 99 -5 12 -28 35 -30 35 -4 0 48 -74 84 -126 62z"/>
<path d="M1119 2477 c-36 -25 -41 -47 -25 -130 6 -31 10 -36 21 -27 28 23 64
163 46 175 -5 2 -24 -6 -42 -18z"/>
<path d="M1830 2481 c0 -13 -10 -26 -26 -33 -22 -10 -28 -10 -39 5 -15 20 -35
22 -35 4 0 -20 33 -47 57 -47 31 0 75 39 71 63 -4 28 -28 34 -28 8z"/>
<path d="M1475 2418 c-13 -29 -52 -35 -70 -11 -13 17 -14 17 -21 0 -17 -44 66
-69 106 -32 22 20 27 65 7 65 -7 0 -17 -10 -22 -22z"/>
<path d="M1988 2394 c46 -34 12 -102 -46 -89 -17 3 -38 15 -47 25 -29 32 -80
44 -114 27 -27 -13 -31 -13 -50 6 -25 25 -84 28 -107 5 -26 -25 -8 -41 26 -23
26 13 30 13 51 -4 21 -16 21 -21 10 -49 -17 -41 -55 -48 -97 -16 -78 60 -134
53 -214 -27 -35 -36 -66 -59 -79 -59 -35 0 -61 19 -61 44 0 24 17 36 51 36 11
0 17 5 14 10 -9 15 -52 12 -85 -5 -36 -19 -60 -62 -60 -110 0 -47 14 -71 50
-90 67 -35 242 -35 308 -1 28 14 29 14 41 -19 24 -68 99 -110 156 -89 24 9 45
58 45 103 0 67 2 68 84 63 59 -4 79 -1 112 16 58 30 114 95 114 133 0 58 -42
113 -95 124 l-30 6 23 -17z"/>
<path d="M973 2339 c-27 -10 -43 -39 -43 -78 0 -47 28 -41 32 7 2 30 7 38 26
40 13 2 35 -4 49 -13 l26 -17 -27 -22 c-23 -18 -27 -28 -24 -61 2 -27 8 -40
18 -40 11 0 14 9 12 34 -4 36 9 51 45 51 36 0 36 17 -1 53 -40 40 -82 58 -113
46z"/>
<path d="M2094 2072 c-8 -20 -32 -57 -54 -83 -29 -35 -37 -51 -33 -72 4 -20
-2 -34 -28 -59 l-34 -33 -3 38 c-2 20 -8 37 -13 37 -7 0 -8 -12 -4 -30 8 -36
-9 -94 -39 -135 -13 -16 -25 -35 -29 -41 -4 -6 9 -33 28 -60 19 -27 35 -59 35
-71 0 -22 3 -23 93 -23 98 0 117 -7 117 -46 0 -16 -23 -35 -95 -80 -52 -32
-93 -60 -91 -61 2 -2 141 29 310 68 284 67 308 71 323 56 9 -9 15 -18 12 -20
-2 -2 -146 -36 -319 -76 -173 -40 -325 -75 -338 -78 -13 -3 -21 -7 -19 -9 2
-2 172 25 378 61 206 37 386 67 400 67 33 1 147 -59 166 -88 17 -27 7 -51 -33
-83 l-26 -21 -31 26 c-28 23 -38 26 -84 21 -68 -7 -144 -49 -199 -110 -50 -55
-58 -58 -234 -81 -337 -43 -774 -42 -1088 4 l-133 19 -44 48 c-45 51 -119 96
-171 106 -21 4 -44 0 -69 -13 -36 -18 -39 -18 -51 -2 -21 27 -17 42 24 80 101
96 387 173 752 202 74 6 141 13 148 15 18 7 15 77 -7 125 -22 50 -14 89 25
115 24 15 24 15 24 -15 0 -16 12 -54 26 -83 21 -42 31 -53 45 -50 11 3 31 -6
50 -21 l31 -26 -59 0 c-51 0 -63 -4 -83 -25 l-23 -25 101 0 c56 0 102 4 102 9
0 5 -11 22 -24 38 -43 52 -76 106 -76 126 0 11 30 48 72 88 39 38 70 71 67 73
-2 3 -30 -4 -61 -15 -86 -29 -222 -41 -328 -29 -160 18 -257 70 -311 165 -17
30 -33 55 -36 55 -16 0 -207 -180 -223 -211 -7 -13 10 -25 93 -67 126 -64 232
-98 364 -120 94 -16 102 -19 97 -37 -11 -36 -27 -42 -144 -54 -63 -6 -132 -14
-152 -17 l-37 -6 5 33 c4 31 1 37 -36 61 -42 30 -57 17 -20 -17 21 -19 26 -51
11 -73 -4 -7 -46 -22 -93 -32 -126 -27 -235 -66 -309 -110 -74 -44 -103 -79
-103 -126 0 -30 -2 -31 -35 -27 -20 2 -43 -1 -51 -6 -12 -9 -12 -15 4 -48 46
-93 65 -155 56 -174 -28 -51 9 -157 76 -221 64 -60 119 -83 197 -83 63 0 71 2
93 28 13 15 24 37 24 47 0 10 9 21 20 25 10 3 28 21 40 39 19 32 22 33 58 26
70 -16 337 -39 517 -46 248 -9 717 21 816 52 19 5 69 -48 69 -75 0 -31 55 -73
103 -78 154 -18 332 140 307 272 -5 28 29 111 81 193 12 20 12 24 -1 32 -8 5
-25 10 -37 10 -20 0 -23 5 -23 36 0 51 -30 94 -92 131 -95 57 -297 117 -465
139 l-51 6 -21 55 -21 56 25 43 c33 56 15 57 -26 2 -24 -35 -29 -49 -24 -73 4
-16 9 -40 12 -52 5 -22 3 -22 -68 -17 -80 6 -70 0 -153 99 l-34 41 82 42 c57
29 116 72 190 138 l107 96 -33 21 c-39 24 -147 74 -201 93 l-37 13 -16 -37z"/>
<path d="M1600 1477 c-44 -15 -65 -53 -46 -82 20 -31 56 -45 114 -45 92 0 142
43 108 95 -26 40 -108 55 -176 32z m81 -22 c0 -5 -9 -11 -21 -13 -20 -3 -27 8
-13 22 10 9 34 3 34 -9z m-51 -26 c0 -5 -9 -9 -20 -9 -22 0 -27 16 -7 23 15 5
27 -1 27 -14z m105 12 c3 -5 1 -13 -5 -16 -15 -9 -43 3 -35 15 8 13 32 13 40
1z m-45 -31 c0 -5 -11 -10 -25 -10 -14 0 -25 5 -25 10 0 6 11 10 25 10 14 0
25 -4 25 -10z"/>
<path d="M1474 1409 c-10 -17 13 -36 27 -22 12 12 4 33 -11 33 -5 0 -12 -5
-16 -11z"/>
<path d="M1014 1398 c-12 -5 -27 -21 -33 -34 -29 -66 114 -117 201 -72 47 23
45 79 -2 103 -33 17 -134 19 -166 3z m96 -18 c0 -5 -9 -10 -20 -10 -11 0 -20
5 -20 10 0 6 9 10 20 10 11 0 20 -4 20 -10z m-50 -20 c0 -5 -9 -10 -20 -10
-11 0 -20 5 -20 10 0 6 9 10 20 10 11 0 20 -4 20 -10z m110 0 c0 -5 -9 -10
-19 -10 -11 0 -23 5 -26 10 -4 6 5 10 19 10 14 0 26 -4 26 -10z m-55 -19 c3
-5 1 -13 -5 -16 -15 -9 -43 3 -35 15 8 13 32 13 40 1z"/>
<path d="M1250 1394 c0 -9 7 -14 17 -12 25 5 28 28 4 28 -12 0 -21 -6 -21 -16z"/>
<path d="M2497 1373 c-4 -3 -7 -12 -7 -20 0 -15 26 -18 34 -4 7 11 -18 33 -27
24z"/>
<path d="M2564 1365 c-8 -21 5 -40 19 -26 18 18 37 12 47 -15 6 -14 14 -22 20
-19 14 9 13 48 -2 63 -17 17 -77 15 -84 -3z"/>
<path d="M2322 1350 c-72 -17 -93 -74 -41 -113 33 -24 119 -28 167 -8 67 28
48 100 -32 120 -50 12 -48 12 -94 1z m68 -30 c0 -5 -9 -10 -20 -10 -11 0 -20
5 -20 10 0 6 9 10 20 10 11 0 20 -4 20 -10z m-50 -19 c0 -5 -6 -11 -12 -14
-18 -6 -39 3 -32 14 7 12 44 12 44 0z m100 -1 c0 -5 -9 -10 -20 -10 -11 0 -20
5 -20 10 0 6 9 10 20 10 11 0 20 -4 20 -10z m-50 -26 c0 -9 -7 -14 -17 -12
-25 5 -28 28 -4 28 12 0 21 -6 21 -16z"/>
<path d="M2714 1349 c-10 -17 13 -36 27 -22 12 12 4 33 -11 33 -5 0 -12 -5
-16 -11z"/>
<path d="M1325 1327 c-23 -18 -11 -41 15 -27 20 11 43 -8 38 -31 -2 -8 4 -14
12 -14 23 0 24 41 1 64 -24 24 -40 26 -66 8z"/>
<path d="M1550 1279 c-34 -14 -60 -39 -60 -59 0 -9 12 -27 26 -41 22 -21 35
-24 101 -24 69 0 76 2 98 28 18 20 22 33 16 50 -16 46 -116 72 -181 46z m78
-26 c2 -8 -5 -13 -17 -13 -12 0 -21 6 -21 16 0 18 31 15 38 -3z m-50 -21 c2
-7 -6 -12 -17 -12 -21 0 -27 11 -14 24 9 9 26 2 31 -12z m107 9 c3 -5 1 -13
-5 -16 -15 -9 -43 3 -35 15 8 13 32 13 40 1z m-55 -31 c0 -5 -9 -10 -20 -10
-11 0 -20 5 -20 10 0 6 9 10 20 10 11 0 20 -4 20 -10z"/>
<path d="M1090 1235 c0 -8 9 -15 20 -15 11 0 20 7 20 15 0 8 -9 15 -20 15 -11
0 -20 -7 -20 -15z"/>
<path d="M1380 1225 c0 -8 9 -15 20 -15 11 0 20 7 20 15 0 8 -9 15 -20 15 -11
0 -20 -7 -20 -15z"/>
<path d="M1965 1230 c-10 -16 14 -49 41 -56 27 -7 64 18 64 43 0 19 -20 16
-36 -4 -13 -17 -15 -17 -33 5 -21 25 -27 27 -36 12z"/>
<path d="M2191 1216 c-12 -14 -5 -26 16 -26 15 0 18 26 4 34 -5 3 -14 0 -20
-8z"/>
<path d="M1837 1213 c-4 -3 -7 -12 -7 -20 0 -15 26 -18 34 -4 7 11 -18 33 -27
24z"/>
<path d="M775 640 c-33 -10 -86 -26 -119 -35 l-58 -17 34 -37 c18 -20 44 -48
56 -62 l23 -26 -58 -64 -57 -64 100 -3 c157 -5 144 -19 144 168 0 88 -1 160
-2 159 -2 0 -30 -9 -63 -19z"/>
<path d="M2720 500 c0 -187 -13 -173 144 -168 l100 3 -57 64 -58 64 23 26 c12
14 38 43 57 64 19 20 32 37 29 37 -5 0 -198 56 -225 65 -10 3 -13 -32 -13
-155z"/>
<path d="M910 521 l0 -131 35 0 c33 0 35 2 35 35 0 32 3 35 29 35 41 0 90 19
101 40 20 37 12 95 -16 121 -22 20 -38 24 -105 28 l-79 3 0 -131z m135 34 c0
-15 -8 -21 -32 -23 -30 -3 -33 -1 -33 23 0 24 3 26 33 23 24 -2 32 -8 32 -23z"/>
<path d="M1160 520 l0 -130 35 0 35 0 0 130 0 130 -35 0 -35 0 0 -130z"/>
<path d="M1274 636 c-15 -38 0 -51 61 -56 l60 -5 -63 -68 c-45 -48 -62 -74
-60 -90 3 -21 8 -22 111 -25 l107 -3 0 35 0 35 -57 3 -58 3 58 61 c45 48 57
68 57 92 l0 32 -105 0 c-83 0 -107 -3 -111 -14z"/>
<path d="M1524 636 c-15 -38 0 -51 61 -56 l60 -5 -63 -68 c-45 -48 -62 -74
-60 -90 3 -21 8 -22 111 -25 l107 -3 0 35 0 35 -57 3 -58 3 58 61 c45 48 57
68 57 92 l0 32 -105 0 c-83 0 -107 -3 -111 -14z"/>
<path d="M1853 633 c-4 -10 -28 -67 -55 -128 -26 -60 -48 -110 -48 -112 0 -11
80 0 90 12 17 20 88 20 111 -1 10 -9 31 -14 53 -12 l35 3 -56 128 c-56 127
-56 127 -90 127 -23 0 -36 -6 -40 -17z m51 -141 c-25 -6 -32 2 -22 28 l9 25
14 -25 c12 -21 12 -25 -1 -28z"/>
<path d="M2050 520 l0 -130 35 0 c33 0 35 2 35 34 0 50 14 52 51 6 28 -34 38
-40 71 -40 21 0 38 3 38 8 -1 4 -14 23 -30 41 l-30 35 20 21 c20 21 27 76 14
110 -11 28 -60 45 -134 45 l-70 0 0 -130z m135 30 c0 -21 -5 -25 -30 -25 -25
0 -30 4 -33 28 -3 27 -1 28 30 25 28 -2 33 -7 33 -28z"/>
<path d="M2310 520 l0 -130 35 0 35 0 0 130 0 130 -35 0 -35 0 0 -130z"/>
<path d="M2503 633 c-4 -10 -28 -67 -55 -128 -26 -60 -48 -110 -48 -112 0 -11
80 0 90 12 17 20 88 20 111 -1 10 -9 31 -14 53 -12 l35 3 -56 128 c-56 127
-56 127 -90 127 -23 0 -36 -6 -40 -17z m51 -141 c-25 -6 -32 2 -22 28 l9 25
14 -25 c12 -21 12 -25 -1 -28z"/>
<path d="M1107 296 c-20 -25 -37 -48 -37 -51 0 -4 16 -27 36 -51 l36 -44 619
0 618 0 35 46 c38 49 38 49 -8 107 l-29 37 -617 0 -616 0 -37 -44z m876 19 c1
-5 -13 -11 -30 -13 -31 -3 -42 6 -26 22 10 10 53 3 56 -9z m-460 -45 c13 -19
13 -19 30 0 31 37 97 16 97 -30 0 -46 -62 -66 -95 -30 l-18 20 -14 -20 c-10
-13 -25 -20 -49 -20 l-34 0 0 50 0 50 34 0 c23 0 39 -7 49 -20z m255 -21 c-3
-48 -27 -71 -54 -54 -21 13 -15 31 9 28 13 -2 17 5 17 32 0 25 4 35 16 35 12
0 14 -9 12 -41z m112 20 c16 -28 5 -66 -21 -74 -57 -18 -101 34 -64 75 24 27
71 26 85 -1z m100 -25 c11 -26 20 -47 20 -49 0 -1 -26 -2 -58 -2 l-59 0 21 49
c26 63 48 63 76 2z m108 34 c7 -7 12 -24 12 -38 0 -34 -17 -50 -52 -50 -18 0
-33 8 -44 25 -15 23 -15 27 0 50 18 27 63 34 84 13z"/>
<path d="M1470 240 c0 -13 5 -20 13 -17 6 2 12 10 12 17 0 7 -6 15 -12 18 -8
2 -13 -5 -13 -18z"/>
<path d="M1575 250 c-4 -7 -3 -16 3 -22 14 -14 45 -2 40 15 -6 16 -34 21 -43
7z"/>
<path d="M1825 250 c-4 -7 -3 -16 3 -22 14 -14 45 -2 40 15 -6 16 -34 21 -43
7z"/>
<path d="M2044 249 c-10 -17 13 -36 27 -22 12 12 4 33 -11 33 -5 0 -12 -5 -16
-11z"/>
</g>
</svg>
